Coordinates
version=1
nRows=24
nColumns=22
inDegrees=yes

Units are S.I. units (second, meters, Newtons, ...)
If the header above contains a line with 'inDegrees', this indicates whether rotational values are in degrees (yes) or radians (no).

endheader
time	pelvis_tilt	pelvis_list	pelvis_rotation	pelvis_tx	pelvis_ty	pelvis_tz	hip_flexion_r	hip_adduction_r	hip_rotation_r	knee_angle_r	ankle_angle_r	subtalar_angle_r	hip_flexion_l	hip_adduction_l	hip_rotation_l	knee_angle_l	ankle_angle_l	subtalar_angle_l	lumbar_extension	lumbar_bending	lumbar_rotation
      2.69000000	     -3.37342802	     -6.39665884	      4.43025845	     -0.47507628	      0.95979719	      0.16444295	     21.42176176	      8.53567615	    -16.44718206	    -28.16993288	      9.00268554	     -5.35700559	     13.56214152	    -10.24307230	     13.34892129	    -56.83055012	      8.73147546	      2.20160174	     -1.84114504	      8.99410727	    -13.04429647
      2.70000000	     -3.36493369	     -6.41579238	      3.71568762	     -0.46773346	      0.96059355	      0.16818294	     20.59029286	      9.12144852	    -15.81265927	    -27.61075695	      9.23847536	     -5.41729264	     14.45940592	    -10.33785847	     13.39686303	    -56.50099606	      9.18987145	      1.23388155	     -1.84487298	      8.90479956	    -12.74547125
      2.71000000	     -3.37411835	     -6.42453169	      2.97792703	     -0.46047464	      0.96131301	      0.17190895	     19.77027886	      9.67992432	    -15.14591396	    -27.05350640	      9.46037146	     -5.48661689	     15.31443352	    -10.38682302	     13.48445768	    -55.97480163	      9.67593737	      0.45855712	     -1.83598235	      8.80960536	    -12.45666625
      2.72000000	     -3.40899983	     -6.42751079	      2.21324655	     -0.45328079	      0.96194428	      0.17565623	     18.96753901	     10.21990921	    -14.44219394	    -26.49383698	      9.65069365	     -5.55921509	     16.14019510	    -10.40905129	     13.59203925	    -55.26794832	     10.16042649	     -0.11842413	     -1.80321667	      8.71157321	    -12.18466443
      2.73000000	     -3.49310666	     -6.44505726	      1.42619938	     -0.44618624	      0.96241432	      0.17939142	     18.22420799	     10.74767381	    -13.74268079	    -25.95877290	      9.85853536	     -5.62254306	     16.98047014	    -10.41846495	     13.74448104	    -54.42288506	     10.68414097	     -0.46535419	     -1.72261776	      8.63937064	    -11.89913971
      2.74000000	     -3.52796282	     -6.41804901	      0.61165950	     -0.43909780	      0.96293686	      0.18312930	     17.40271321	     11.22668103	    -12.95705423	    -25.40859328	     10.01277795	     -5.73089224	     17.67884017	    -10.36253879	     13.91114376	    -53.38414681	     11.08473284	     -1.07552856	     -1.70471821	      8.52622329	    -11.62966220
      2.75000000	     -3.65859859	     -6.43215882	     -0.22373765	     -0.43210622	      0.96319748	      0.18690522	     16.69550199	     11.72126294	    -12.19437310	    -24.89056613	     10.20926404	     -5.79753038	     18.47079649	    -10.33995110	     14.11618734	    -52.27289900	     11.55618904	     -1.35807754	     -1.58472350	      8.46468879	    -11.35166531
      2.76000000	     -3.73578033	     -6.39888603	     -1.09153306	     -0.42512537	      0.96350406	      0.19068537	     15.90894068	     12.16027309	    -11.34105591	    -24.36385195	     10.35858876	     -5.88896696	     19.12953292	    -10.24801240	     14.34595050	    -51.02107386	     11.90306643	     -1.82019173	     -1.53528129	      8.35935990	    -11.05436847
      2.77000000	     -3.85581510	     -6.37848605	     -1.97754609	     -0.41816973	      0.96365178	      0.19449456	     15.16220699	     12.58871851	    -10.50092173	    -23.84821330	     10.54330897	     -5.95722926	     19.80887685	    -10.16765213	     14.59809889	    -49.70112481	     12.25174102	     -2.19495614	     -1.43981927	      8.27650739	    -10.76195676
      2.78000000	     -3.99048751	     -6.35634361	     -2.88592409	     -0.41125814	      0.96369871	      0.19831911	     14.42502306	     12.99694390	     -9.63455997	    -23.34287114	     10.72766983	     -5.99804969	     20.47392617	    -10.07176814	     14.89687516	    -48.32510412	     12.55398625	     -2.49099806	     -1.33657800	      8.20072902	    -10.44773784
      2.79000000	     -4.13169761	     -6.32765734	     -3.81206879	     -0.40437631	      0.96366216	      0.20214112	     13.68543483	     13.37582206	     -8.75449502	    -22.84217093	     10.91967317	     -6.01371906	     21.11824001	     -9.95624401	     15.23832525	    -46.90438889	     12.80449301	     -2.73914663	     -1.23263007	      8.12995100	    -10.12637332
      2.80000000	     -4.31060661	     -6.30923970	     -4.74896364	     -0.39753786	      0.96348557	      0.20597952	     12.97796275	     13.74442764	     -7.88291899	    -22.34541100	     11.11610648	     -6.01498097	     21.79545514	     -9.84072666	     15.63761538	    -45.47553389	     13.00109198	     -2.87163099	     -1.09294077	      8.07882862	     -9.80385706
      2.81000000	     -4.46363413	     -6.26294200	     -5.69766986	     -0.39071600	      0.96328619	      0.20978723	     12.23608271	     14.05655715	     -6.99934814	    -21.85637409	     11.31415027	     -5.99094171	     22.41062912	     -9.67675786	     16.09127995	    -44.00883710	     13.12325260	     -2.98605158	     -0.98846940	      8.00814303	     -9.47608991
      2.82000000	     -4.61281090	     -6.20641174	     -6.64548169	     -0.38392113	      0.96302160	      0.21357226	     11.48820026	     14.33033512	     -6.12786922	    -21.37713969	     11.51780438	     -5.94443982	     23.00160840	     -9.48232683	     16.61808619	    -42.52831202	     13.17301773	     -3.04996472	     -0.89371666	      7.93450841	     -9.15590906
      2.83000000	     -4.75671482	     -6.13789783	     -7.59315045	     -0.37715008	      0.96269317	      0.21732424	     10.74121747	     14.56267533	     -5.26721611	    -20.92083335	     11.72840011	     -5.88020695	     23.56733032	     -9.26103856	     17.20890922	    -41.03690267	     13.14162373	     -3.05015805	     -0.81043212	      7.85822135	     -8.84435691
      2.84000000	     -4.90256592	     -6.05721758	     -8.53765562	     -0.37040147	      0.96229566	      0.22104960	     10.00597498	     14.75746071	     -4.41533294	    -20.48746039	     11.94653747	     -5.81231500	     24.11522884	     -9.01854943	     17.85481326	    -39.53526075	     13.00992260	     -2.98315895	     -0.73053977	      7.77931901	     -8.54634666
      2.85000000	     -5.03666090	     -5.96097492	     -9.48219036	     -0.36366492	      0.96184157	      0.22476668	      9.27835536	     14.91144401	     -3.56653908	    -20.09402927	     12.17887493	     -5.73797577	     24.62678680	     -8.76049646	     18.53747787	    -38.02109852	     12.77888144	     -2.86011804	     -0.66821888	      7.68745076	     -8.25164334
      2.86000000	     -5.17280073	     -5.84947880	    -10.42177894	     -0.35693887	      0.96131559	      0.22844699	      8.57986389	     15.02598397	     -2.72814982	    -19.74533806	     12.41970940	     -5.67350595	     25.12280035	     -8.49455192	     19.23344870	    -36.49681969	     12.41668801	     -2.70251948	     -0.60816855	      7.59234876	     -7.96528198
      2.87000000	     -5.29923477	     -5.72027391	    -11.36226652	     -0.35021444	      0.96072611	      0.23212999	      7.90771967	     15.10272810	     -1.88767276	    -19.45807508	     12.67824521	     -5.61125076	     25.58700326	     -8.22965832	     19.91474753	    -34.96001934	     11.93533037	     -2.52958630	     -0.56126694	      7.48194477	     -7.68015728
      2.88000000	     -5.42174207	     -5.57427464	    -12.30201166	     -0.34349006	      0.96006123	      0.23582093	      7.27414978	     15.14540783	     -1.04811375	    -19.23998575	     12.95206158	     -5.55376244	     26.03235361	     -7.97527344	     20.55489525	    -33.41504254	     11.32889281	     -2.36396527	     -0.52001279	      7.35771669	     -7.40007954
      2.89000000	     -5.54110391	     -5.41280854	    -13.24236482	     -0.33676497	      0.95931732	      0.23952802	      6.68659694	     15.15923394	     -0.20886212	    -19.10103580	     13.24204269	     -5.50106069	     26.46267112	     -7.73788569	     21.13167968	    -31.86687539	     10.61481679	     -2.21946540	     -0.48249147	      7.22033141	     -7.12052064
      2.90000000	     -5.65876358	     -5.23710463	    -14.18312367	     -0.33003971	      0.95849083	      0.24325143	      6.15128493	     15.14735954	      0.62687375	    -19.04771505	     13.54456856	     -5.45444972	     26.88529834	     -7.52405497	     21.61942227	    -30.32139644	      9.82350882	     -2.09892170	     -0.44657021	      7.07248003	     -6.84560349
      2.91000000	     -5.76989011	     -5.05136991	    -15.12694797	     -0.32330516	      0.95758365	      0.24701335	      5.66079593	     15.11633003	      1.45933051	    -19.07942322	     13.86823263	     -5.40655799	     27.29644605	     -7.34024065	     22.00097053	    -28.78447233	      9.01200264	     -2.00153298	     -0.41661097	      6.91400690	     -6.56644423
      2.92000000	     -5.87820067	     -4.86263560	    -16.06573835	     -0.31655691	      0.95659428	      0.25079776	      5.21691108	     15.07439920	      2.27781464	    -19.19139841	     14.20139573	     -5.36217242	     27.70330073	     -7.18944727	     22.27097646	    -27.26272302	      8.23541091	     -1.91424691	     -0.38889844	      6.75564576	     -6.29406083
